# xmcd
#
# Track frame offsets: 
#        150
#        21165
#        44097
#        69005
#        92407
#        111935
#        127170
#        148792
#        177737
#        189662
#        204375
#        216982
#        246070
#        261887
#        282692
#        304245
#        324535
#        335175
#
# Disc length: 4677 seconds
#
# Revision: 33
# Processed by: cddbd v1.5.2PL0 Copyright (c) Steve Scherf et al.
# Submitted via: ExactAudioCopyFreeDBPlugin 1.0
#
DISCID=28124312
DTITLE=MARIUS MÜLLER-WESTERNHAGEN - So Weit... [2CD]
DYEAR=2000
DGENRE=Deutsch
TTITLE0=Du bist nicht allein
TTITLE1=Rosanna
TTITLE2=Sexy
TTITLE3=Mit 18
TTITLE4=Lass uns leben
TTITLE5=Willenlos
TTITLE6=Es geht mir gut
TTITLE7=Nimm mich mit 2000
TTITLE8=Freiheit
TTITLE9=Fertig
TTITLE10=Mit Pfefferminz bin ich Dein Prinz
TTITLE11=Wieder hier
TTITLE12=Schweigen ist feige
TTITLE13=Rosi (Männer sind so schwach)
TTITLE14=Weil ich Dich liebe
TTITLE15=Steh' auf
TTITLE16=Geiler is' schon
TTITLE17=Johnny W.
EXTD=YEAR: 2000
EXTT0=
EXTT1=
EXTT2=
EXTT3=
EXTT4=
EXTT5=
EXTT6=
EXTT7=
EXTT8=
EXTT9=
EXTT10=
EXTT11=
EXTT12=
EXTT13=
EXTT14=
EXTT15=
EXTT16=
EXTT17=
PLAYORDER=
